<?xml version="1.0" standalone="no"?><!DOCTYPE svg PUBLIC "-//W3C//DTD SVG 1.1//EN" "http://www.w3.org/Graphics/SVG/1.1/DTD/svg11.dtd"><svg t="1572573014409" class="icon" viewBox="0 0 1024 1024" version="1.1" xmlns="http://www.w3.org/2000/svg" p-id="1411" xmlns:xlink="http://www.w3.org/1999/xlink" width="200" height="200"><defs><style type="text/css"></style></defs><path d="M738.468709 25.445654c0-24.15848-15.46654-32.594775-34.384291-18.85384L44.966943 486.949318a29.271386 29.271386 0 0 0 0 50.170388l659.053563 480.293593c19.173397 13.804846 34.384292 5.30464 34.384292-19.173397V25.445654z m0 0L904.062947 1.159351h23.966747a63.911323 63.911323 0 0 1 63.911323 63.911323v894.758523a63.911323 63.911323 0 0 1-63.911323 63.911323h-23.966747a63.911323 63.911323 0 0 1-63.911323-63.911323V65.070674a63.911323 63.911323 0 0 1 63.911323-63.911323z" p-id="1412" fill="#ffffff"></path></svg>