<?xml version="1.0" standalone="no"?><!DOCTYPE svg PUBLIC "-//W3C//DTD SVG 1.1//EN" "http://www.w3.org/Graphics/SVG/1.1/DTD/svg11.dtd"><svg t="1572573053803" class="icon" viewBox="0 0 1024 1024" version="1.1" xmlns="http://www.w3.org/2000/svg" p-id="1887" xmlns:xlink="http://www.w3.org/1999/xlink" width="200" height="200"><defs><style type="text/css"></style></defs><path d="M256 0h30.016a128 128 0 0 1 128 128v768a128 128 0 0 1-128 128H256a128 128 0 0 1-128-128V128a128 128 0 0 1 128-128z m481.984 0H768a128 128 0 0 1 128 128v768a128 128 0 0 1-128 128h-30.016a128 128 0 0 1-128-128V128a128 128 0 0 1 128-128z" p-id="1888" fill="#ffffff"></path></svg>