<?xml version="1.0" standalone="no"?><!DOCTYPE svg PUBLIC "-//W3C//DTD SVG 1.1//EN" "http://www.w3.org/Graphics/SVG/1.1/DTD/svg11.dtd"><svg t="1572573042700" class="icon" viewBox="0 0 1024 1024" version="1.1" xmlns="http://www.w3.org/2000/svg" p-id="1739" xmlns:xlink="http://www.w3.org/1999/xlink" width="200" height="200"><defs><style type="text/css"></style></defs><path d="M585.024 123.072c0-20.544-10.304-27.776-22.848-16.064L208.64 486.464a29.888 29.888 0 0 0 0 50.24l353.536 430.656c12.8 11.776 22.848 4.544 22.848-16V123.072z m0 0h438.784c0-20.544-10.24-27.776-22.848-16.064l-353.536 379.456a29.888 29.888 0 0 0 0 50.24l353.536 430.656c12.8 11.776 22.848 4.544 22.848-16V123.072zM72 0h1.984a72 72 0 0 1 72 72v880A72 72 0 0 1 73.984 1024h-1.984A72 72 0 0 1 0 952V72A72 72 0 0 1 72 0z" p-id="1740" fill="#ffffff"></path></svg>